PathFileType	4	(X/Y/Z)	C:/Users/beibeiliu/ov580/test_trc/User3\sequence.5_training_dense_right.trc
DataRate	CameraRate	NumFrames	NumMarkers	Units	OrigDataRate	OrigDataStartFrame	OrigNumFrames
120	120	9	19	mm	120	30	119
Frame#	Time	ThumbCMC			ThumbMCP			ThumbIP			ThumbTip			IndexMCP			IndexPIP			IndexTip			MiddleMCP			MiddlePIP			MiddleTip			RingMCP			RingPIP			RingTip			PinkyMCP			PinkyPIP			PinkyTip			BackHand1			BackHand2			BackHand3	
		X0	Y0	Z0	X1	Y1	Z1	X2	Y2	Z2	X3	Y3	Z3	X4	Y4	Z4	X5	Y5	Z5	X6	Y6	Z6	X7	Y7	Z7	X8	Y8	Z8	X9	Y9	Z9	X10	Y10	Z10	X11	Y11	Z11	X12	Y12	Z12	X13	Y13	Z13	X14	Y14	Z14	X15	Y15	Z15	X16	Y16	Z16	X17	Y17	Z17	X18	Y18	Z18	
29	0.241667	77.0703	-21.6508	-7.55079	54.7025	-21.8204	-25.6256	29.5172	-16.5993	-44.3465	14.0422	-15.7347	-59.8995	73.4844	-40.7016	-82.6365	66.2311	-66.5565	-71.4761	75.7681	-53.2026	-42.2888	90.9322	-48.4334	-86.5317	85.2944	-73.4514	-67.7524	92.635	-48.4156	-36.5904	109.537	-54.2696	-78.0135	100.866	-76.6531	-57.0565	104.443	-54.7783	-31.7955	124.517	-58.7234	-71.9402	114.983	-76.0259	-50.3324	123.164	-57.164	-29.7023	129.184	-13.2278	-46.6047	139.521	-12.1555	-13.2582	99.6786	-4.33666	-21.4727	
30	0.25	74.32	-20.7096	-9.20191	53.0438	-20.199	-26.7389	31.9339	-18.4364	-43.4497	16.1782	-18.0647	-56.7442	69.4653	-37.3573	-80.7041	68.1672	-66.8994	-70.303	75.6417	-54.9349	-41.9151	90.5187	-47.5566	-84.9808	84.2181	-74.1785	-67.0657	94.8612	-50.9164	-37.8539	107.976	-56.0697	-78.7106	99.0197	-76.8698	-57.9051	107.786	-53.5636	-31.764	121.995	-58.7038	-71.2863	111.443	-73.8679	-51.662	119.271	-56.5596	-30.5169	129.606	-14.4184	-45.1851	136.001	-13.3976	-14.8596	100.598	-4.06667	-21.7084	
31	0.258333	74.4984	-21.7356	-7.57913	51.4378	-20.6807	-28.7103	31.1266	-18.1626	-44.1195	12.0176	-17.014	-57.3917	73.2455	-36.2575	-80.6546	65.5127	-67.6035	-69.5262	76.956	-54.1818	-41.3303	89.8713	-48.7554	-85.9738	84.8455	-74.9275	-68.2681	92.8156	-49.691	-35.48	105.407	-56.45	-77.7766	100.783	-77.0288	-56.6806	102.475	-57.4097	-32.0681	123.683	-60.0909	-71.1424	112.041	-74.8662	-52.3089	116.72	-54.4136	-30.6282	126.478	-14.1553	-45.1596	133.933	-10.8066	-11.8238	102.363	-5.50932	-22.7069	
32	0.266667	72.0818	-21.5324	-3.66041	49.7076	-20.4889	-27.3525	27.9278	-16.6164	-44.7233	12.003	-17.1498	-58.1192	71.6379	-34.9748	-80.3335	62.1683	-67.2024	-68.1223	71.7207	-55.1698	-42.2424	89.2791	-44.7297	-83.6409	80.4207	-73.8328	-67.1736	94.522	-52.6003	-36.6096	106.297	-54.0801	-77.5154	98.9428	-76.9577	-58.3906	105.704	-55.368	-31.5693	122.762	-57.0955	-71.3289	115.345	-77.0131	-51.7006	118.258	-52.4022	-30.8262	128.931	-12.8492	-43.8511	136.635	-13.6674	-14.0031	100.935	-5.07212	-24.9365	
33	0.275	72.9602	-22.9322	-5.35563	50.86	-22.1883	-22.3975	29.0196	-19.4733	-41.5745	10.9146	-16.5932	-56.4616	67.3964	-38.1772	-81.3648	62.7193	-67.3305	-71.151	74.5683	-55.9902	-42.2937	92.208	-45.2318	-83.3372	81.8144	-74.555	-68.8668	91.0316	-54.7242	-36.324	106.373	-57.3428	-77.8494	101.433	-77.627	-57.8756	107.55	-58.3383	-32.464	121.912	-59.4054	-71.9039	114.378	-76.9248	-51.9096	120.755	-53.7876	-27.3522	127.182	-10.8613	-43.7121	132.957	-11.6568	-14.9125	96.7077	-5.18806	-20.0726	
34	0.283333	73.8843	-23.3308	-7.48557	49.7684	-20.7635	-24.9918	33.0611	-20.2667	-41.9461	11.2341	-16.6057	-55.6095	72.9367	-38.1332	-80.3693	61.9859	-68.3988	-67.9877	72.5646	-56.3595	-41.4022	85.4225	-47.4444	-84.3621	81.2308	-74.3227	-69.8184	93.0636	-52.2664	-36.7385	104.644	-54.8672	-77.234	101.128	-77.2272	-59.6619	103.159	-54.4796	-31.0812	121.499	-59.3383	-71.0909	114.517	-76.5557	-51.2091	117.656	-55.874	-29.4142	128.358	-14.5462	-41.9451	133.351	-13.502	-11.1516	97.4646	-5.95271	-22.9324	
35	0.291667	75.3979	-24.0135	-3.93965	50.5424	-20.839	-26.4743	29.5307	-18.6605	-41.8549	15.4948	-18.9113	-57.6186	67.66	-39.4466	-81.8169	65.5242	-67.5464	-72.1748	70.8911	-56.5462	-41.1267	86.9801	-49.4305	-85.7294	81.9752	-75.6941	-68.3982	95.0881	-55.2664	-37.6116	107.922	-55.5864	-77.3355	97.8284	-77.6119	-56.1849	106.143	-54.4211	-30.9529	119.356	-61.4855	-72.0195	112.616	-76.6701	-54.3111	118.571	-56.3536	-30.7142	125.471	-12.0373	-42.5622	134.753	-13.3437	-9.4178	101.051	-5.69145	-22.3401	
36	0.3	74.5837	-22.8101	-7.63955	53.3924	-23.2123	-23.9373	29.2857	-17.7076	-46.1031	13.6133	-18.4003	-57.0791	72.228	-39.3367	-81.8655	62.0716	-68.1062	-70.9885	74.0891	-57.8065	-42.5988	84.5874	-48.466	-84.538	81.3794	-74.8903	-69.4446	90.9854	-52.4775	-35.3414	106.02	-55.454	-76.9749	98.8277	-77.5648	-55.1758	103.515	-54.617	-32.2111	123.852	-60.6933	-71.2493	112.5	-78.1358	-48.5318	116	-59.6645	-30.1081	125.894	-15.2291	-42.5865	132.817	-12.9204	-14.5499	101.055	-6.16705	-19.575	
37	0.308333	76.4334	-24.8527	-4.28743	51.8171	-22.823	-22.8334	28.2746	-18.2548	-45.7097	12.9545	-18.9777	-57.8685	72.2916	-38.4761	-79.7656	65.0416	-68.5388	-72.1777	70.2366	-55.2473	-40.0305	87.603	-49.4467	-85.0447	83.2202	-76.2365	-68.4552	93.95	-53.7012	-37.0277	106.637	-56.4523	-77.7764	97.9614	-78.2408	-54.4902	101.134	-56.9217	-32.1563	122.923	-64.4324	-71.0728	111.718	-78.3843	-48.7375	116.017	-55.4868	-29.9318	128.864	-15.1019	-42.1444	137.548	-14.4352	-15.3612	100.793	-6.62462	-24.9954	
